<svg width="110" height="56" viewBox="0 0 110 56" fill="none" xmlns="http://www.w3.org/2000/svg">
<path d="M55 56H28.3159C12.6702 56 0 43.4712 0 28C0 12.5288 12.6702 0 28.3159 0H55V6.07458H28.3159C16.1257 6.07458 6.14311 15.9458 6.14311 28C6.14311 40.0542 16.1257 49.9254 28.3159 49.9254H55V56Z" fill="#D31A1D"/>
<path d="M81.8804 56H55V49.9254H81.8804C93.9861 49.9254 103.899 40.0542 103.899 28C103.899 15.9458 94.0815 6.07458 81.8804 6.07458H55V0H81.8804C97.4177 0 110 12.5288 110 28C110 43.4712 97.4177 56 81.8804 56Z" fill="#313238"/>
<path d="M41.027 22.223C40.8368 19.6805 39.0304 18.268 35.8929 18.268C33.1358 18.268 31.5195 19.398 31.5195 21.2813C31.5195 23.6355 34.3718 23.8238 39.791 25.3304C44.6398 26.6487 47.6822 28.532 47.6822 32.9578C47.6822 39.2669 42.0728 41.621 36.5585 41.621C29.2377 41.621 24.9593 38.1369 24.8643 32.1103H30.7589C30.854 35.6886 33.2309 37.1011 36.8437 37.1011C39.9812 37.1011 41.8827 35.7828 41.8827 33.5228C41.8827 31.4512 40.0762 31.0745 34.4668 29.4737C30.0934 28.2495 25.9101 27.1196 25.9101 21.7521C25.9101 16.9497 29.9983 13.7481 36.2732 13.7481C41.9777 13.7481 46.5413 16.2906 46.6364 22.223H41.027V22.223Z" fill="#D31A1D"/>
<path d="M77.3459 14.219C82.0996 14.219 85.9026 16.1965 85.9026 20.9047C85.9026 23.4472 84.3814 25.4246 82.1947 26.4605C84.9519 27.2138 87.1386 29.2854 87.1386 32.9579C87.1386 38.1369 83.0504 40.8677 78.0114 40.8677H64.5107V14.219H77.3459ZM70.3103 25.048H75.7296C77.9163 25.048 80.1981 24.6713 80.1981 21.9405C80.1981 19.2097 78.0114 18.8331 75.7296 18.8331H70.3103V25.048ZM70.3103 36.3478H76.205C78.772 36.3478 81.2439 35.877 81.2439 32.6754C81.2439 29.4738 78.5818 29.0029 75.9197 29.0029H70.3103V36.3478Z" fill="#313238"/>
</svg>
