<svg width="17" height="17" viewBox="0 0 17 17" fill="none" xmlns="http://www.w3.org/2000/svg">
<path fill-rule="evenodd" clip-rule="evenodd" d="M1.97903 15.2349C1.58851 14.8444 1.58851 14.2112 1.97903 13.8207L13.2927 2.507C13.6833 2.11648 14.3164 2.11648 14.707 2.507C15.0975 2.89753 15.0975 3.53069 14.707 3.92122L3.39325 15.2349C3.00272 15.6255 2.36956 15.6255 1.97903 15.2349Z" fill="#E84747"/>
<path fill-rule="evenodd" clip-rule="evenodd" d="M3.5 5.79993C4.32843 5.79993 5 5.12835 5 4.29993C5 3.4715 4.32843 2.79993 3.5 2.79993C2.67157 2.79993 2 3.4715 2 4.29993C2 5.12835 2.67157 5.79993 3.5 5.79993ZM3.5 7.79993C5.433 7.79993 7 6.23292 7 4.29993C7 2.36693 5.433 0.799927 3.5 0.799927C1.567 0.799927 0 2.36693 0 4.29993C0 6.23292 1.567 7.79993 3.5 7.79993Z" fill="#E84747"/>
<path fill-rule="evenodd" clip-rule="evenodd" d="M13.5 14.7999C14.3284 14.7999 15 14.1284 15 13.2999C15 12.4715 14.3284 11.7999 13.5 11.7999C12.6716 11.7999 12 12.4715 12 13.2999C12 14.1284 12.6716 14.7999 13.5 14.7999ZM13.5 16.7999C15.433 16.7999 17 15.2329 17 13.2999C17 11.3669 15.433 9.79993 13.5 9.79993C11.567 9.79993 10 11.3669 10 13.2999C10 15.2329 11.567 16.7999 13.5 16.7999Z" fill="#E84747"/>
</svg>
