<svg width="19" height="19" viewBox="0 0 19 19" fill="none" xmlns="http://www.w3.org/2000/svg">
<path fill-rule="evenodd" clip-rule="evenodd" d="M8.75591 0C10.2785 5.43307e-05 11.7694 0.434595 13.0536 1.25258C14.3377 2.07056 15.3618 3.23802 16.0055 4.61782C16.6492 5.99762 16.8858 7.53246 16.6875 9.04205C16.4891 10.5516 15.8642 11.9733 14.8859 13.14L18.7059 16.95C18.7991 17.0432 18.8731 17.1539 18.9236 17.2757C18.974 17.3976 19 17.5281 19 17.66C19 17.7919 18.974 17.9224 18.9236 18.0443C18.8731 18.1661 18.7991 18.2768 18.7059 18.37C18.5176 18.5583 18.2622 18.6641 17.9959 18.6641C17.864 18.6641 17.7335 18.6381 17.6117 18.5877C17.4898 18.5372 17.3791 18.4632 17.2859 18.37L13.4359 14.49C12.0815 15.4737 10.4499 16.0024 8.77591 16C6.65418 16 4.61934 15.1571 3.11905 13.6569C1.61876 12.1566 0.775909 10.1217 0.775909 8C0.775909 5.87827 1.61876 3.84344 3.11905 2.34315C4.61934 0.842855 6.65418 0 8.77591 0H8.75591ZM8.75591 14C9.9426 14 11.1026 13.6481 12.0893 12.9888C13.076 12.3295 13.8451 11.3925 14.2992 10.2961C14.7533 9.19974 14.8721 7.99334 14.6406 6.82946C14.4091 5.66557 13.8377 4.59647 12.9985 3.75736C12.1594 2.91824 11.0903 2.3468 9.92645 2.11529C8.76256 1.88378 7.55616 2.0026 6.45981 2.45672C5.36345 2.91085 4.42638 3.67988 3.76709 4.66658C3.1078 5.65327 2.75591 6.81331 2.75591 8C2.75591 9.5913 3.38805 11.1174 4.51327 12.2426C5.63849 13.3679 7.16461 14 8.75591 14Z" fill="#313238"/>
</svg>
