<svg width="19" height="14" viewBox="0 0 19 14" fill="none" xmlns="http://www.w3.org/2000/svg">
<path fill-rule="evenodd" clip-rule="evenodd" d="M15.6955 12.9643C17.0677 12.8092 17.7202 12.0762 17.9334 10.7264C17.9334 10.7264 18.1598 9.24783 18.1595 6.69072C18.1595 5.2342 18.0528 3.8802 17.933 2.93439C17.7614 1.5791 16.9785 0.728998 15.5888 0.60343C13.9976 0.459692 10.5531 0.376953 8.95542 0.376953C5.68741 0.376953 4.22667 0.456772 2.68157 0.616733C1.20914 0.768907 0.564107 1.42335 0.3107 2.77443C0.133218 3.72121 0.0576172 4.60798 0.0576172 6.7037C0.0576172 8.58624 0.146521 9.77022 0.284094 10.7663C0.473257 12.1343 1.41226 12.9029 2.78832 13.0175C4.38923 13.1508 7.59624 13.2173 9.1819 13.2173C10.7143 13.2173 14.1621 13.1375 15.6955 12.9643ZM12.1391 6.71277L7.1842 9.34127V4.13749L12.1391 6.71277Z" fill="white"/>
</svg>
