<svg width="21" height="20" viewBox="0 0 21 20" fill="none" xmlns="http://www.w3.org/2000/svg">
<path fill-rule="evenodd" clip-rule="evenodd" d="M10.5 12C12.7091 12 14.5 10.2091 14.5 8C14.5 5.79086 12.7091 4 10.5 4C8.29086 4 6.5 5.79086 6.5 8C6.5 10.2091 8.29086 12 10.5 12ZM10.5 10C11.6046 10 12.5 9.10457 12.5 8C12.5 6.89543 11.6046 6 10.5 6C9.39543 6 8.5 6.89543 8.5 8C8.5 9.10457 9.39543 10 10.5 10Z" fill="white"/>
<path fill-rule="evenodd" clip-rule="evenodd" d="M16.4261 18.0557C18.897 16.235 20.5 13.3047 20.5 10C20.5 4.47715 16.0228 0 10.5 0C4.97715 0 0.5 4.47715 0.5 10C0.5 13.3047 2.10301 16.235 4.57388 18.0557C4.61934 18.0892 4.66509 18.1223 4.71112 18.1551C5.15997 18.4742 5.6363 18.7573 6.13587 19C7.45464 19.6407 8.93535 20 10.5 20C12.0646 20 13.5454 19.6407 14.8641 19C14.8909 18.987 14.9177 18.9738 14.9443 18.9606C15.4657 18.7015 15.9613 18.3982 16.4261 18.0557ZM15.7287 16.055C17.426 14.588 18.5 12.4194 18.5 10C18.5 5.58172 14.9183 2 10.5 2C6.08172 2 2.5 5.58172 2.5 10C2.5 12.4194 3.57401 14.588 5.27128 16.055C6.30066 14.2313 8.25654 13 10.5 13C12.7435 13 14.6993 14.2313 15.7287 16.055ZM14.0567 17.1679C13.3921 15.8803 12.0488 15 10.5 15C8.95116 15 7.60792 15.8803 6.94332 17.1679C8.01467 17.7005 9.22236 18 10.5 18C11.7776 18 12.9853 17.7005 14.0567 17.1679Z" fill="white"/>
</svg>
